<?xml version="1.0" encoding="iso-8859-1"?>
<!-- Generator: Adobe Illustrator 19.0.0, SVG Export Plug-In . SVG Version: 6.00 Build 0)  -->
<svg version="1.1" id="Layer_1" xmlns="http://www.w3.org/2000/svg" xmlns:xlink="http://www.w3.org/1999/xlink" x="0px" y="0px"
	 viewBox="0 0 512 512" style="enable-background:new 0 0 512 512;" xml:space="preserve">
<g>
	<g>
		<rect x="152.511" y="418.883" width="21.908" height="16.456"/>
	</g>
</g>
<g>
	<g>
		<rect x="196.316" y="418.883" width="21.908" height="16.456"/>
	</g>
</g>
<g>
	<g>
		<rect x="108.706" y="418.883" width="21.897" height="16.456"/>
	</g>
</g>
<g>
	<g>
		<rect x="152.511" y="314.84" width="21.908" height="16.456"/>
	</g>
</g>
<g>
	<g>
		<rect x="382.495" y="62.948" width="21.908" height="16.456"/>
	</g>
</g>
<g>
	<g>
		<path d="M401.669,156.448v-33.885c24.801-3.957,43.816-25.49,43.816-51.386c0-25.891-19.015-47.42-43.816-51.376V0h-16.456v19.829
			c-13.704,2.208-26.065,9.847-34.168,21.222H127.848v197.127h-13.669c-10.574,0-19.176,8.602-19.176,19.176v90.341H62.146V451.74
			H41.202L33.671,512h259.572l-7.531-60.26h-20.933V347.696h-32.856v-90.341c0-10.574-8.602-19.176-19.176-19.176h-13.68V106.786
			h156.457c7.935,8.474,18.328,13.976,29.689,15.775v33.888c-42.961,4.152-76.661,40.452-76.661,84.484
			c0,46.807,38.082,84.889,84.889,84.889c46.807,0,84.889-38.081,84.889-84.889C478.33,196.9,444.63,160.6,401.669,156.448z
			 M144.303,254.634h38.309v27.349h-38.309V254.634z M111.458,257.355c0-1.501,1.22-2.721,2.721-2.721h13.669v27.349h-16.39V257.355
			z M78.601,402.482h169.723v49.257H78.601V402.482z M271.186,468.195l3.418,27.349H52.311l3.418-27.349H271.186z M248.325,364.152
			v21.875H78.601v-21.875H248.325z M199.067,254.634h13.68c1.501,0,2.721,1.22,2.721,2.721v24.629h-16.401V254.634z
			 M215.468,298.439v49.257h-104.01v-49.257H215.468z M303.078,90.33H157.983v16.456h24.629v131.393h-38.309V57.507h158.775V90.33z
			 M319.533,90.33V57.507h23.708c-1.205,4.436-1.833,9.034-1.833,13.669c0,6.675,1.232,13.132,3.619,19.154H319.533z
			 M365.566,93.286c-5.039-6.342-7.702-13.987-7.702-22.11c0-6.198,1.616-12.301,4.672-17.645
			c6.331-11.06,18.172-17.931,30.905-17.931c19.623,0,35.588,15.96,35.588,35.577c0,19.623-15.965,35.588-35.588,35.588
			C382.526,106.764,372.366,101.853,365.566,93.286z M393.441,309.366c-37.734,0-68.433-30.698-68.433-68.433
			s30.7-68.433,68.433-68.433s68.433,30.7,68.433,68.433S431.175,309.366,393.441,309.366z"/>
	</g>
</g>
<g>
	<g>
		<path d="M393.441,205.322c-19.629,0-35.599,15.975-35.599,35.61s15.97,35.61,35.599,35.61c19.635,0,35.61-15.975,35.61-35.61
			S413.076,205.322,393.441,205.322z M393.441,260.086c-10.556,0-19.143-8.593-19.143-19.154s8.588-19.154,19.143-19.154
			c10.561,0,19.154,8.593,19.154,19.154C412.595,251.493,404.002,260.086,393.441,260.086z"/>
	</g>
</g>
<g>
</g>
<g>
</g>
<g>
</g>
<g>
</g>
<g>
</g>
<g>
</g>
<g>
</g>
<g>
</g>
<g>
</g>
<g>
</g>
<g>
</g>
<g>
</g>
<g>
</g>
<g>
</g>
<g>
</g>
</svg>
